<svg width="32" height="32" viewBox="0 0 32 32" fill="none" xmlns="http://www.w3.org/2000/svg">
<path d="M16 31.4375C24.5255 31.4375 31.4375 24.5255 31.4375 16C31.4375 7.47449 24.5255 0.5625 16 0.5625C7.47449 0.5625 0.5625 7.47449 0.5625 16C0.5625 24.5255 7.47449 31.4375 16 31.4375ZM13.3793 9.71441C13.2644 9.60524 13.1725 9.47417 13.1091 9.32892C13.0456 9.18368 13.0119 9.0272 13.0099 8.86871C13.0078 8.71022 13.0375 8.55292 13.0973 8.4061C13.157 8.25927 13.2455 8.12589 13.3576 8.01381C13.4696 7.90173 13.603 7.81323 13.7498 7.75351C13.8967 7.69379 14.054 7.66407 14.2125 7.6661C14.3709 7.66813 14.5274 7.70187 14.6727 7.76532C14.8179 7.82878 14.949 7.92067 15.0582 8.03559L22.1832 15.1606C22.4057 15.3833 22.5307 15.6852 22.5307 16C22.5307 16.3148 22.4057 16.6167 22.1832 16.8394L15.0582 23.9644C14.8337 24.1777 14.5347 24.2949 14.225 24.2909C13.9154 24.2869 13.6195 24.1622 13.4006 23.9432C13.1816 23.7242 13.0568 23.4284 13.0528 23.1187C13.0489 22.8091 13.166 22.5101 13.3793 22.2856L19.6642 16L13.3793 9.71441Z" fill="#383836"/>
</svg>
