<svg width="32" height="32" viewBox="0 0 32 32" fill="none" xmlns="http://www.w3.org/2000/svg">
<path d="M16 0.5625C7.47449 0.5625 0.5625 7.47449 0.5625 16C0.5625 24.5255 7.47449 31.4375 16 31.4375C24.5255 31.4375 31.4375 24.5255 31.4375 16C31.4375 7.47449 24.5255 0.5625 16 0.5625ZM18.6207 22.2856C18.7356 22.3948 18.8275 22.5258 18.8909 22.6711C18.9544 22.8163 18.9881 22.9728 18.9901 23.1313C18.9922 23.2898 18.9625 23.4471 18.9027 23.5939C18.843 23.7407 18.7545 23.8741 18.6424 23.9862C18.5304 24.0983 18.397 24.1868 18.2502 24.2465C18.1033 24.3062 17.946 24.3359 17.7875 24.3339C17.6291 24.3319 17.4726 24.2981 17.3273 24.2347C17.1821 24.1712 17.051 24.0793 16.9418 23.9644L9.81684 16.8394C9.5943 16.6167 9.4693 16.3148 9.4693 16C9.4693 15.6852 9.5943 15.3833 9.81684 15.1606L16.9418 8.03559C17.1663 7.82229 17.4653 7.70513 17.775 7.7091C18.0846 7.71306 18.3805 7.83783 18.5994 8.05681C18.8184 8.27579 18.9432 8.57164 18.9472 8.8813C18.9511 9.19095 18.834 9.4899 18.6207 9.71441L12.3358 16L18.6207 22.2856Z" fill="#383836"/>
</svg>
