<svg width="230" height="320" viewBox="0 0 230 320" fill="none" xmlns="http://www.w3.org/2000/svg">
<path d="M23 1.5C11.1259 1.5 1.5 11.1259 1.5 23V297C1.5 308.874 11.1259 318.5 23 318.5H207C218.874 318.5 228.5 308.874 228.5 297V23C228.5 11.1259 218.874 1.5 207 1.5H23Z" fill="white" stroke="#7181FA" stroke-width="3"/>
<path d="M25.5 37C25.5 31.7533 29.7533 27.5 35 27.5H195C200.247 27.5 204.5 31.7533 204.5 37V283C204.5 288.247 200.247 292.5 195 292.5H35C29.7533 292.5 25.5 288.247 25.5 283V37Z" stroke="#7181FA" stroke-linejoin="round"/>
<rect x="187" y="132" width="40" height="107" fill="white"/>
<rect x="4" y="117" width="40" height="89" fill="white"/>
<rect x="93" y="5.5" width="44" height="44" rx="22" fill="white"/>
<path d="M112.254 9.2113C113.953 8.23012 116.047 8.23012 117.746 9.21129L129.465 15.9773C131.165 16.9584 132.212 18.7717 132.212 20.7341V34.266C132.212 36.2283 131.165 38.0416 129.465 39.0228L117.746 45.7888C116.047 46.7699 113.953 46.7699 112.254 45.7888L100.535 39.0228C98.8353 38.0416 97.7883 36.2283 97.7883 34.266V20.7341C97.7883 18.7717 98.8352 16.9584 100.535 15.9773L112.254 9.2113Z" stroke="#7181FA" stroke-width="1.02326"/>
<path fill-rule="evenodd" clip-rule="evenodd" d="M115.648 15.6982C115.483 15.365 115.007 15.365 114.842 15.6982L113.632 18.13C113.299 18.8012 112.78 19.3631 112.138 19.7496L109.88 21.1077C109.589 21.2827 109.589 21.7046 109.88 21.8796L112.138 23.2377C112.78 23.6242 113.299 24.1861 113.632 24.8573L114.051 25.6982H116.439L116.857 24.8573C117.191 24.1861 117.71 23.6242 118.352 23.2377L120.609 21.8796C120.9 21.7046 120.9 21.2827 120.609 21.1077L118.352 19.7496C117.71 19.3631 117.191 18.8012 116.857 18.13L115.648 15.6982Z" fill="#FFDB1E"/>
<path d="M104.999 24.831C105.117 24.6004 105.376 24.4681 105.639 24.5021L115.243 25.6588L124.848 24.5021C125.111 24.4719 125.37 24.6042 125.487 24.831L127.123 27.9835C127.476 28.6602 127.1 29.4804 126.346 29.6883L119.936 31.4536C119.39 31.6048 118.806 31.3818 118.515 30.9131L115.243 25.6588L111.971 30.9131C111.681 31.3818 111.096 31.6048 110.551 31.4536L104.144 29.6883C103.387 29.4804 103.014 28.6602 103.367 27.9835L104.999 24.831ZM115.286 28.078L117.44 31.533C118.025 32.4704 119.19 32.9165 120.285 32.6141L125.287 31.2381V37.5508C125.287 38.3824 124.699 39.1082 123.859 39.3123L115.851 41.2401C115.451 41.3384 115.031 41.3384 114.635 41.2401L106.627 39.3123C105.788 39.1044 105.199 38.3786 105.199 37.547V31.2344L110.205 32.6141C111.296 32.9165 112.465 32.4704 113.05 31.533L115.2 28.078H115.286Z" fill="#7181FA"/>
<path d="M123.038 14.7662C123.13 14.4516 123.576 14.4516 123.667 14.7662L124.389 17.2456C124.415 17.3334 124.476 17.4065 124.558 17.4473L126.668 18.4979C126.91 18.6185 126.91 18.9639 126.668 19.0845L124.558 20.1351C124.476 20.1759 124.415 20.249 124.389 20.3368L123.667 22.8161C123.576 23.1308 123.13 23.1308 123.038 22.8161L122.316 20.3368C122.291 20.249 122.23 20.1759 122.148 20.1351L120.038 19.0845C119.796 18.9639 119.796 18.6185 120.038 18.4979L122.148 17.4473C122.23 17.4065 122.291 17.3334 122.316 17.2456L123.038 14.7662Z" fill="#FFDC23"/>
<path d="M106.528 16.9471C106.632 16.6579 107.041 16.6579 107.145 16.9471L107.753 18.6407C107.778 18.7114 107.827 18.7712 107.891 18.8101L109.378 19.7121C109.588 19.8396 109.588 20.1447 109.378 20.2722L107.891 21.1742C107.827 21.2131 107.778 21.2729 107.753 21.3436L107.145 23.0372C107.041 23.3264 106.632 23.3264 106.528 23.0372L105.92 21.3436C105.895 21.2729 105.846 21.2131 105.782 21.1742L104.295 20.2722C104.085 20.1447 104.085 19.8396 104.295 19.7121L105.782 18.8101C105.846 18.7712 105.895 18.7114 105.92 18.6407L106.528 16.9471Z" fill="#FFDC23"/>
<path d="M219 234.5C217.417 234.563 212.858 234.625 211.718 234.688C206.21 235.065 205.07 236.194 204.69 241.651C204.627 242.78 204.563 250.432 204.5 252C204.437 250.432 204.373 242.78 204.31 241.651C203.93 236.194 202.79 235.065 197.282 234.688C196.142 234.625 191.583 234.563 190 234.5C191.583 234.437 196.142 234.375 197.282 234.312C202.79 233.935 203.93 232.806 204.31 227.349C204.373 226.22 204.437 218.568 204.5 217C204.563 218.568 204.627 226.22 204.69 227.349C205.07 232.806 206.21 233.935 211.718 234.312C212.858 234.375 217.354 234.437 219 234.5Z" fill="#7181FA"/>
<path d="M40 119.5C38.417 119.563 33.8581 119.625 32.7183 119.688C27.2096 120.065 26.0699 121.194 25.69 126.651C25.6266 127.78 25.5633 135.432 25.5 137C25.4367 135.432 25.3734 127.78 25.31 126.651C24.9301 121.194 23.7904 120.065 18.2817 119.688C17.1419 119.625 12.583 119.563 11 119.5C12.583 119.437 17.1419 119.375 18.2817 119.312C23.7904 118.935 24.9301 117.806 25.31 112.349C25.3734 111.22 25.4367 103.568 25.5 102C25.5633 103.568 25.6266 111.22 25.69 112.349C26.0699 117.806 27.2096 118.935 32.7183 119.312C33.8581 119.375 38.3537 119.437 40 119.5Z" fill="#7181FA"/>
</svg>
