<svg width="222" height="48" viewBox="0 0 222 48" fill="none" xmlns="http://www.w3.org/2000/svg">
<path d="M0.0280907 28.726L1.55438 10.0144C1.68391 8.42636 3.03226 7.2166 4.62501 7.25939L45.8234 8.3662L101.764 6L152.348 8.3662L215.399 7.23694C217.058 7.20722 218.426 8.53009 218.452 10.1893L218.956 42.2127C218.98 43.8014 217.762 45.1341 216.178 45.2516L179.128 48L125.568 45.0423L74.9837 48L4.85976 45.1433C3.42106 45.0846 2.22691 44.0121 2.01465 42.588L0.0509343 29.4122C0.01709 29.1851 0.00942517 28.9549 0.0280907 28.726Z" fill="#FFDB1E"/>
<path d="M4.52809 22.726L6.05438 4.01441C6.18391 2.42636 7.53226 1.2166 9.12501 1.25939L50.3234 2.3662L106.264 0L156.848 2.3662L218.21 1.54089C219.882 1.5184 221.25 2.86799 221.25 4.54062V36.2688C221.25 37.8345 220.046 39.1369 218.485 39.2596L183.628 42L130.068 39.0423L79.4837 42L9.35976 39.1433C7.92106 39.0846 6.72691 38.0121 6.51465 36.588L4.55093 23.4122C4.51709 23.1851 4.50943 22.9549 4.52809 22.726Z" fill="#7181FA"/>
<path d="M62.046 29.5C61.776 29.5 61.641 29.374 61.641 29.122V11.734C61.641 11.464 61.776 11.329 62.046 11.329H71.226C71.478 11.329 71.622 11.347 71.658 11.383C71.712 11.419 71.739 11.554 71.739 11.788V13.948C71.739 14.2 71.703 14.353 71.631 14.407C71.577 14.443 71.442 14.461 71.226 14.461H65.988C65.862 14.461 65.79 14.47 65.772 14.488C65.754 14.506 65.745 14.569 65.745 14.677V18.565C65.745 18.691 65.754 18.763 65.772 18.781C65.79 18.799 65.853 18.808 65.961 18.808H70.011C70.281 18.808 70.434 18.835 70.47 18.889C70.524 18.943 70.551 19.114 70.551 19.402V21.319C70.551 21.589 70.524 21.751 70.47 21.805C70.416 21.859 70.263 21.886 70.011 21.886H65.961C65.871 21.886 65.808 21.895 65.772 21.913C65.754 21.931 65.745 21.985 65.745 22.075V26.125C65.745 26.233 65.754 26.305 65.772 26.341C65.79 26.359 65.853 26.368 65.961 26.368H71.145C71.451 26.368 71.622 26.404 71.658 26.476C71.712 26.53 71.739 26.692 71.739 26.962V28.906C71.739 29.194 71.703 29.365 71.631 29.419C71.559 29.473 71.388 29.5 71.118 29.5H62.046ZM83.8622 19.753C83.7182 20.005 83.6552 20.221 83.6732 20.401C83.6912 20.563 83.7722 20.77 83.9162 21.022C84.0422 21.22 84.1412 21.373 84.2132 21.481C84.2852 21.571 84.3752 21.706 84.4832 21.886C84.9152 22.588 85.3022 23.272 85.6442 23.938C86.0042 24.604 86.3192 25.234 86.5892 25.828C86.8772 26.422 87.1112 26.971 87.2912 27.475C87.4892 27.961 87.6332 28.393 87.7232 28.771C87.7952 29.059 87.7592 29.257 87.6152 29.365C87.4892 29.455 87.3272 29.5 87.1292 29.5H83.8352C83.7092 29.5 83.6102 29.473 83.5382 29.419C83.4662 29.365 83.3852 29.203 83.2952 28.933C83.1872 28.609 83.0432 28.24 82.8632 27.826C82.6832 27.394 82.4852 26.944 82.2692 26.476C82.0532 26.008 81.8282 25.549 81.5942 25.099C81.3602 24.649 81.1442 24.235 80.9462 23.857C80.7482 23.479 80.5772 23.164 80.4332 22.912C80.3612 22.768 80.2982 22.696 80.2442 22.696C80.2082 22.678 80.1452 22.75 80.0552 22.912C79.8212 23.308 79.5872 23.722 79.3532 24.154C79.1372 24.586 78.9122 25.018 78.6782 25.45C78.4622 25.864 78.2552 26.278 78.0572 26.692C77.8772 27.106 77.7062 27.502 77.5442 27.88C77.3822 28.258 77.2472 28.609 77.1392 28.933C77.0852 29.167 77.0222 29.32 76.9502 29.392C76.8962 29.464 76.7792 29.5 76.5992 29.5H73.3592C73.1252 29.5 72.9452 29.455 72.8192 29.365C72.7112 29.257 72.6932 29.059 72.7652 28.771C72.8012 28.627 72.9092 28.285 73.0892 27.745C73.2692 27.205 73.5482 26.512 73.9262 25.666C74.3222 24.802 74.8352 23.839 75.4652 22.777C75.6092 22.525 75.7802 22.237 75.9782 21.913C76.1762 21.571 76.3652 21.274 76.5452 21.022C76.6172 20.932 76.6622 20.725 76.6802 20.401C76.6982 20.077 76.6622 19.861 76.5722 19.753C75.9962 18.853 75.4922 18.034 75.0602 17.296C74.6462 16.558 74.2952 15.883 74.0072 15.271C73.7192 14.659 73.4852 14.092 73.3052 13.57C73.1432 13.048 73.0262 12.553 72.9542 12.085C72.9002 11.779 72.9362 11.581 73.0622 11.491C73.2062 11.383 73.3682 11.329 73.5482 11.329H76.7612C76.9412 11.329 77.0672 11.356 77.1392 11.41C77.2112 11.446 77.2562 11.536 77.2742 11.68C77.2742 11.68 77.3102 11.806 77.3822 12.058C77.4542 12.292 77.5532 12.616 77.6792 13.03C77.8232 13.444 77.9942 13.912 78.1922 14.434C78.4082 14.956 78.6602 15.496 78.9482 16.054C79.2362 16.594 79.5602 17.125 79.9202 17.647C79.9562 17.683 79.9832 17.719 80.0012 17.755C80.0192 17.773 80.0552 17.827 80.1092 17.917C80.1632 18.007 80.2082 18.034 80.2442 17.998C80.2982 17.962 80.3342 17.926 80.3522 17.89C80.4062 17.8 80.4332 17.755 80.4332 17.755C80.4332 17.755 80.4602 17.719 80.5142 17.647C80.8742 17.143 81.1982 16.621 81.4862 16.081C81.7742 15.523 82.0172 14.983 82.2152 14.461C82.4312 13.939 82.6022 13.471 82.7282 13.057C82.8722 12.643 82.9802 12.31 83.0522 12.058C83.1242 11.806 83.1602 11.68 83.1602 11.68C83.1962 11.536 83.2502 11.446 83.3222 11.41C83.3942 11.356 83.5202 11.329 83.7002 11.329H86.9672C87.1292 11.329 87.2732 11.383 87.3992 11.491C87.5432 11.581 87.5882 11.779 87.5342 12.085C87.4442 12.553 87.2732 13.093 87.0212 13.705C86.7872 14.317 86.4992 14.965 86.1572 15.649C85.8152 16.333 85.4462 17.026 85.0502 17.728C84.6542 18.43 84.2582 19.105 83.8622 19.753ZM88.8047 29.5C88.6247 29.5 88.5167 29.428 88.4807 29.284C88.4447 29.14 88.4627 28.852 88.5347 28.42C88.6427 27.628 88.8227 26.674 89.0747 25.558C89.3267 24.424 89.6237 23.227 89.9657 21.967C90.3077 20.707 90.6767 19.447 91.0727 18.187C91.4687 16.927 91.8737 15.757 92.2877 14.677C92.7017 13.579 93.0977 12.661 93.4757 11.923C93.5837 11.743 93.6827 11.599 93.7727 11.491C93.8807 11.383 94.0067 11.329 94.1507 11.329H96.8237C96.9677 11.383 97.0937 11.455 97.2017 11.545C97.3097 11.617 97.4087 11.743 97.4987 11.923C97.8947 12.661 98.2997 13.579 98.7137 14.677C99.1277 15.757 99.5327 16.927 99.9287 18.187C100.325 19.447 100.694 20.707 101.036 21.967C101.378 23.227 101.675 24.424 101.927 25.558C102.179 26.674 102.359 27.628 102.467 28.42C102.539 28.852 102.557 29.14 102.521 29.284C102.485 29.428 102.368 29.5 102.17 29.5H98.9837C98.8217 29.5 98.7047 29.455 98.6327 29.365C98.5787 29.275 98.5157 29.032 98.4437 28.636C98.3717 28.24 98.2727 27.772 98.1467 27.232C98.0387 26.692 97.9487 26.251 97.8767 25.909C97.8587 25.765 97.8317 25.684 97.7957 25.666C97.7777 25.648 97.7057 25.639 97.5797 25.639H93.4217C93.2957 25.639 93.2237 25.648 93.2057 25.666C93.1877 25.684 93.1607 25.765 93.1247 25.909C93.0527 26.251 92.9537 26.692 92.8277 27.232C92.7197 27.772 92.6297 28.24 92.5577 28.636C92.4857 29.032 92.4137 29.275 92.3417 29.365C92.2877 29.455 92.1797 29.5 92.0177 29.5H88.8047ZM94.2857 22.534H96.7157C96.8417 22.534 96.9137 22.516 96.9317 22.48C96.9497 22.426 96.9407 22.336 96.9047 22.21C96.7247 21.49 96.5177 20.725 96.2837 19.915C96.0677 19.087 95.8697 18.367 95.6897 17.755C95.6537 17.593 95.5997 17.512 95.5277 17.512H95.4197C95.3657 17.512 95.3117 17.593 95.2577 17.755C95.1497 18.151 95.0237 18.601 94.8797 19.105C94.7357 19.609 94.5917 20.131 94.4477 20.671C94.3217 21.193 94.1957 21.706 94.0697 22.21C94.0517 22.336 94.0517 22.426 94.0697 22.48C94.0877 22.516 94.1597 22.534 94.2857 22.534ZM104.892 29.5C104.55 29.5 104.379 29.329 104.379 28.987C104.379 27.763 104.397 26.395 104.433 24.883C104.487 23.353 104.559 21.796 104.649 20.212C104.739 18.61 104.847 17.08 104.973 15.622C105.117 14.146 105.279 12.85 105.459 11.734C105.495 11.59 105.531 11.491 105.567 11.437C105.621 11.365 105.72 11.329 105.864 11.329H107.781C107.979 11.329 108.114 11.347 108.186 11.383C108.276 11.419 108.357 11.5 108.429 11.626L112.263 17.998C112.317 18.088 112.389 18.133 112.479 18.133C112.569 18.133 112.641 18.088 112.695 17.998L116.583 11.626C116.673 11.482 116.754 11.401 116.826 11.383C116.898 11.347 117.024 11.329 117.204 11.329H119.094C119.31 11.329 119.436 11.464 119.472 11.734C119.634 12.85 119.787 14.146 119.931 15.622C120.075 17.098 120.192 18.637 120.282 20.239C120.39 21.823 120.471 23.371 120.525 24.883C120.579 26.395 120.606 27.745 120.606 28.933C120.606 29.149 120.57 29.302 120.498 29.392C120.426 29.464 120.273 29.5 120.039 29.5H116.961C116.691 29.5 116.556 29.347 116.556 29.041C116.556 28.465 116.547 27.871 116.529 27.259C116.529 26.647 116.52 26.026 116.502 25.396C116.484 24.748 116.457 24.1 116.421 23.452C116.385 22.804 116.349 22.156 116.313 21.508C116.277 20.86 116.241 20.221 116.205 19.591C116.187 19.501 116.151 19.456 116.097 19.456C116.043 19.456 115.989 19.501 115.935 19.591L113.289 23.641C113.199 23.749 113.091 23.803 112.965 23.803H111.939C111.777 23.803 111.651 23.731 111.561 23.587L109.077 19.726C109.005 19.582 108.942 19.528 108.888 19.564C108.834 19.6 108.807 19.654 108.807 19.726C108.735 20.5 108.672 21.211 108.618 21.859C108.582 22.507 108.546 23.173 108.51 23.857C108.492 24.541 108.474 25.315 108.456 26.179C108.456 27.043 108.456 28.069 108.456 29.257C108.456 29.419 108.384 29.5 108.24 29.5H104.892ZM134.968 17.269C134.968 18.421 134.752 19.492 134.32 20.482C133.888 21.454 133.24 22.237 132.376 22.831C131.53 23.425 130.468 23.722 129.19 23.722H128.029C127.939 23.722 127.876 23.74 127.84 23.776C127.822 23.812 127.813 23.875 127.813 23.965V29.122C127.813 29.374 127.669 29.5 127.381 29.5H124.114C123.844 29.5 123.709 29.374 123.709 29.122V11.734C123.709 11.464 123.844 11.329 124.114 11.329H128.893C131.035 11.329 132.583 11.815 133.537 12.787C134.491 13.759 134.968 15.253 134.968 17.269ZM127.813 20.536C127.813 20.698 127.885 20.779 128.029 20.779H128.785C129.469 20.779 130.009 20.473 130.405 19.861C130.801 19.249 130.999 18.394 130.999 17.296C130.981 16.126 130.765 15.307 130.351 14.839C129.955 14.371 129.415 14.137 128.731 14.137H128.002C127.93 14.137 127.876 14.146 127.84 14.164C127.822 14.182 127.813 14.254 127.813 14.38V20.536ZM137.694 29.5C137.406 29.5 137.262 29.374 137.262 29.122V11.734C137.262 11.464 137.406 11.329 137.694 11.329H140.826C141.042 11.329 141.177 11.365 141.231 11.437C141.303 11.509 141.339 11.644 141.339 11.842V26.125C141.339 26.233 141.348 26.305 141.366 26.341C141.384 26.359 141.456 26.368 141.582 26.368H146.766C147.054 26.368 147.216 26.404 147.252 26.476C147.306 26.53 147.333 26.692 147.333 26.962V28.906C147.333 29.194 147.306 29.365 147.252 29.419C147.198 29.473 147.027 29.5 146.739 29.5H137.694ZM149.638 29.5C149.368 29.5 149.233 29.374 149.233 29.122V11.734C149.233 11.464 149.368 11.329 149.638 11.329H158.818C159.07 11.329 159.214 11.347 159.25 11.383C159.304 11.419 159.331 11.554 159.331 11.788V13.948C159.331 14.2 159.295 14.353 159.223 14.407C159.169 14.443 159.034 14.461 158.818 14.461H153.58C153.454 14.461 153.382 14.47 153.364 14.488C153.346 14.506 153.337 14.569 153.337 14.677V18.565C153.337 18.691 153.346 18.763 153.364 18.781C153.382 18.799 153.445 18.808 153.553 18.808H157.603C157.873 18.808 158.026 18.835 158.062 18.889C158.116 18.943 158.143 19.114 158.143 19.402V21.319C158.143 21.589 158.116 21.751 158.062 21.805C158.008 21.859 157.855 21.886 157.603 21.886H153.553C153.463 21.886 153.4 21.895 153.364 21.913C153.346 21.931 153.337 21.985 153.337 22.075V26.125C153.337 26.233 153.346 26.305 153.364 26.341C153.382 26.359 153.445 26.368 153.553 26.368H158.737C159.043 26.368 159.214 26.404 159.25 26.476C159.304 26.53 159.331 26.692 159.331 26.962V28.906C159.331 29.194 159.295 29.365 159.223 29.419C159.151 29.473 158.98 29.5 158.71 29.5H149.638Z" fill="#FFDB1E"/>
</svg>
